<?xml version="1.0" encoding="utf-8"?>
<!-- Generator: Adobe Illustrator 24.2.1, SVG Export Plug-In . SVG Version: 6.00 Build 0)  -->
<svg version="1.1" id="Layer_1" xmlns="http://www.w3.org/2000/svg" xmlns:xlink="http://www.w3.org/1999/xlink" x="0px" y="0px"
	 viewBox="0 0 950.2 165.7" style="enable-background:new 0 0 950.2 165.7;" xml:space="preserve">
<style type="text/css">
	.st0{fill:#FFFFFF;}
</style>
<g>
	<path class="st0" d="M167.8,99.2h-53.3c0.2,7.6,2.4,13.3,6.5,17.1c4.1,3.8,9.1,5.7,15,5.7c5.4,0,9.8-1.4,13.4-4.1
		c3.6-2.7,5.8-6.3,6.6-10.9h11.8c-0.8,4.6-2.6,8.7-5.4,12.4c-2.8,3.6-6.4,6.5-10.9,8.5c-4.4,2-9.5,3-15.1,3c-6.4,0-12.1-1.4-17-4.1
		c-4.9-2.8-8.8-6.7-11.6-11.8c-2.8-5.1-4.2-11.2-4.2-18.2s1.4-13,4.2-18.2s6.7-9.1,11.6-11.9s10.6-4.1,17-4.1
		c6.5,0,12.1,1.4,16.9,4.1c4.8,2.8,8.5,6.4,11.1,11c2.6,4.6,3.8,9.7,3.8,15.3C168.3,95.5,168.1,97.5,167.8,99.2 M154.7,81.5
		c-1.9-3.3-4.4-5.8-7.6-7.4c-3.2-1.6-6.8-2.4-10.6-2.4c-6.1,0-11.2,1.9-15.3,5.6c-4.1,3.8-6.4,9.3-6.7,16.6h42.6
		C157.3,88.9,156.5,84.8,154.7,81.5"/>
	<path class="st0" d="M243.6,99.2h-53.3c0.2,7.6,2.4,13.3,6.5,17.1c4.1,3.8,9.1,5.7,15,5.7c5.4,0,9.8-1.4,13.4-4.1
		c3.6-2.7,5.8-6.3,6.6-10.9h11.8c-0.8,4.6-2.6,8.7-5.4,12.4c-2.8,3.6-6.4,6.5-10.9,8.5c-4.4,2-9.5,3-15.1,3c-6.4,0-12.1-1.4-17-4.1
		c-4.9-2.8-8.8-6.7-11.6-11.8c-2.8-5.1-4.2-11.2-4.2-18.2s1.4-13,4.2-18.2c2.8-5.2,6.7-9.1,11.6-11.9s10.6-4.1,17-4.1
		c6.5,0,12.1,1.4,16.9,4.1c4.8,2.8,8.5,6.4,11.1,11c2.6,4.6,3.8,9.7,3.8,15.3C244.1,95.5,243.9,97.5,243.6,99.2 M230.5,81.5
		c-1.9-3.3-4.4-5.8-7.6-7.4c-3.2-1.6-6.8-2.4-10.6-2.4c-6.1,0-11.2,1.9-15.3,5.6c-4.1,3.8-6.4,9.3-6.7,16.6h42.6
		C233.1,88.9,232.3,84.8,230.5,81.5"/>
	<path class="st0" d="M359.3,69.9c4.7,5,7.1,12.2,7.1,21.6v38.8h-11V92.4c0-6.6-1.6-11.6-4.8-15.1c-3.2-3.5-7.6-5.2-13.2-5.2
		c-5.8,0-10.5,1.9-14,5.8c-3.5,3.9-5.3,9.5-5.3,16.9v35.3h-11V92.4c0-6.6-1.6-11.6-4.9-15.1s-7.6-5.2-13.1-5.2
		c-5.9,0-10.6,1.9-14.1,5.8c-3.5,3.9-5.3,9.5-5.3,16.9v35.3h-11V63.5h11v15.2c1.6-5.3,4.5-9.3,8.7-12.1c4.2-2.8,9-4.2,14.4-4.2
		c5.7,0,10.6,1.4,14.8,4.3c4.2,2.9,7.1,7.1,8.9,12.7c1.9-5.4,5-9.6,9.4-12.6c4.4-3,9.3-4.4,14.8-4.4
		C348.3,62.4,354.5,64.9,359.3,69.9"/>
	<path class="st0" d="M448.6,51.3c7,5.3,11.3,12.4,13,21.4h-22c-1.5-3.1-3.7-5.5-6.7-7.4c-3-1.8-6.6-2.7-10.8-2.7
		c-6.6,0-11.8,2.2-15.8,6.6c-4,4.4-6,10.4-6,17.9c0,8.2,2.1,14.5,6.3,18.8s10.1,6.6,17.8,6.6c4.9,0,9.3-1.4,13-4.1
		c3.7-2.7,6.4-6.6,7.9-11.6h-26.2V81.9h43.6v20.5c-1.6,5-4.2,9.7-7.8,14s-8.1,7.8-13.7,10.5c-5.5,2.7-11.9,4-19,4
		c-8.7,0-16.2-1.8-22.7-5.5c-6.5-3.7-11.5-8.9-15-15.5c-3.5-6.6-5.3-14.2-5.3-22.7c0-8.5,1.8-16.1,5.3-22.7
		c3.5-6.6,8.5-11.8,14.9-15.5c6.4-3.7,14-5.5,22.5-5.5C432.8,43.4,441.7,46.1,448.6,51.3"/>
	<path class="st0" d="M538.1,100h-47c0.2,5.1,1.5,8.8,3.9,11c2.4,2.2,5.3,3.3,9,3.3c3.1,0,5.6-0.8,7.6-2.3s3.4-3.5,4-6h22
		c-0.9,4.8-2.8,9-5.8,12.8c-3,3.8-6.8,6.7-11.4,8.9s-9.8,3.2-15.4,3.2c-6.6,0-12.5-1.4-17.7-4.2c-5.1-2.8-9.2-6.8-12.1-12.1
		c-2.9-5.3-4.4-11.4-4.4-18.5c0-7.1,1.4-13.3,4.3-18.5s6.9-9.2,12.1-12c5.2-2.8,11.1-4.2,17.7-4.2c6.7,0,12.6,1.4,17.7,4.1
		s9,6.6,11.8,11.6c2.8,5,4.2,10.7,4.2,17.2C538.7,96.1,538.5,98,538.1,100 M514.1,81.3c-2.5-2.2-5.5-3.3-9.2-3.3
		c-3.8,0-7,1.1-9.5,3.4s-3.9,5.6-4.2,10h26.5C517.8,86.8,516.6,83.5,514.1,81.3"/>
	<path class="st0" d="M611.1,69.4c4.6,5.2,6.9,12.3,6.9,21.4v39.4h-20.8V93.2c0-4.5-1.2-8.1-3.6-10.6c-2.4-2.5-5.6-3.8-9.5-3.8
		c-4.2,0-7.5,1.3-10,4c-2.5,2.7-3.7,6.5-3.7,11.4v36h-20.8V62.4h20.8v12.4c1.9-4,4.8-7.2,8.7-9.6c3.8-2.4,8.4-3.5,13.5-3.5
		C600.3,61.7,606.5,64.2,611.1,69.4"/>
	<path class="st0" d="M633.1,35.5c2.3-2.1,5.3-3.1,9-3.1c3.7,0,6.7,1,9,3.1s3.4,4.7,3.4,7.8c0,3.1-1.1,5.6-3.4,7.7
		c-2.3,2.1-5.3,3.1-9,3.1s-6.7-1-9-3.1s-3.4-4.6-3.4-7.7C629.7,40.2,630.9,37.5,633.1,35.5 M652.4,130.2h-20.8V62.4h20.8V130.2z"/>
	<path class="st0" d="M781,57c-1-1.3-2.5-2.4-4.3-2.5c-1.8-0.1-3.5,0.5-4.9,1.3c-2.9,1.6-5.2,3.8-7.3,6.1c-2.2,2.3-4.1,4.7-6,7.1
		c-5.4,7.1-10.2,14.6-14.9,22.1c-4.3,7-8.7,14.4-14.7,20c-7.4,6.9-20.2,9.1-30,7.5c-4.2-0.6-8.3-2.5-11.2-5.6
		c-3.1-3.4-3.9-8.4-4.1-12.9h47c0.4-2,0.6-3.9,0.6-5.6c0-6.5-1.4-12.2-4.2-17.2s-6.7-8.9-11.8-11.6c-5.1-2.8-11-4.1-17.7-4.1
		c-6.6,0-12.5,1.4-17.7,4.2c-5.2,2.8-9.2,6.8-12.1,12s-4.3,11.4-4.3,18.5c0,7,1.5,13.2,4.4,18.5c9.5,17.2,31.3,21.8,49,16.5
		c3.4-1.1,6.7-2.4,9.8-4.2c14.4-8.7,20.3-25.2,27.3-39.6c2.6-5.5,5.3-10.8,8.4-16c1.5-2.6,3.1-5.1,4.9-7.5c1.8-2.4,3.7-4.6,6-6.3
		c1.1-0.8,2.4-1.4,3.7-1.5c1.3-0.1,2.5,0.6,3.5,1.6l6.7,6.3L781,57z M687.9,81.3c2.5-2.3,5.7-3.4,9.5-3.4c3.6,0,6.7,1.1,9.2,3.3
		s3.7,5.6,3.6,10h-26.5C684,86.9,685.4,83.6,687.9,81.3"/>
	<polygon class="st0" points="100.2,44.5 100.2,53.5 76,53.5 76,130.2 64.9,130.2 64.9,53.5 40.8,53.5 40.8,44.5 	"/>
	<path class="st0" d="M906.4,54.8c-6.4,0-12.2,3.1-15.8,8.1c0,0-0.1,0-0.1-0.1c-3.6-8-10.4-13.8-18.5-16.2c0.8-1.4,1.2-2.9,1.2-4.6
		c0-5.2-4.2-9.4-9.3-9.4c-5.2,0-9.3,4.2-9.3,9.4c0,1.6,0.4,3.1,1.1,4.5c-9.2,2.5-16.7,9.3-19.9,18.5c-7.2,0.4-14.7,0-22.5-1.1
		c-11.4-1.7-23.5-5.5-35-9.4c-1.6-0.5-3.4,0-4.4,1.4c-1,1.4-1.1,3.2-0.1,4.6l0,0c12.8,18.6,27.9,33.1,46.2,44.5
		c7.6,4.7,18.1,10.6,30.2,13.2c-2.6,2.2-4.6,5-5.8,8.4l-1.4,4h39.6l-1.4-4c-1.2-3.4-3.3-6.4-6-8.6c4.3-1.1,8.5-2.8,12.2-5
		c8-4.6,13.3-10.8,15.4-17.8c0.2-0.5,0.3-1,0.4-1.5c1.1,0.2,2.2,0.3,3.3,0.3c10.7,0,19.5-8.7,19.5-19.5
		C925.8,63.5,917.1,54.8,906.4,54.8z M863.8,38.7c1.8,0,3.3,1.5,3.3,3.3s-1.5,3.3-3.3,3.3c-1.8,0-3.3-1.5-3.3-3.3
		C860.5,40.2,862,38.7,863.8,38.7z M863.5,51.4c6.7,0,13,2.9,17.3,7.7c-6.7-1.4-14.4-0.7-23.1,1.9c-5,1.5-10,2.6-15.2,3.2
		C846.4,56.5,854.4,51.4,863.5,51.4z M852.3,124.3c2.5-3,6.3-4.9,10.4-4.9c4.1,0,7.9,1.9,10.4,4.9H852.3z M896.9,93.2
		c-2.1,7-8,11.6-12.6,14.3c-5.8,3.3-13,5.5-19.4,5.8c-12.6,0.6-25.9-3.8-41.8-13.6c-15.8-9.8-29.1-22.1-40.5-37.4
		c9.8,3.2,20,6.1,29.7,7.6c16.9,2.5,32.3,1.5,47.2-3c11.6-3.5,21-3.1,28,1.3C895.4,73.1,899.6,84.1,896.9,93.2z M906.4,87.6
		c-0.9,0-1.8-0.1-2.6-0.3c0-7.6-3.1-15.3-8.5-20.7c2.5-3.6,6.6-5.9,11.1-5.9c7.4,0,13.4,6,13.4,13.4S913.8,87.6,906.4,87.6z"/>
</g>
</svg>
